<!--?xml version="1.0" standalone="no"?-->
              <svg id="sw-js-blob-svg" viewBox="0 0 100 100" xmlns="http://www.w3.org/2000/svg" version="1.1">
                    <defs> 
                        <linearGradient id="sw-gradient" x1="0" x2="1" y1="1" y2="0">
                            <stop id="stop1" stop-color="rgba(57.04, 121.89, 140.2, 1)" offset="0%"></stop>
                            <stop id="stop2" stop-color="rgba(31, 217.464, 251, 1)" offset="100%"></stop>
                        </linearGradient>
                    </defs>
                <path fill="url(#sw-gradient)" d="M20.3,-33.7C25.7,-28.1,29.1,-21.5,33.5,-14.5C37.9,-7.6,43.3,-0.3,43.1,6.7C42.8,13.6,36.9,20.2,30.6,25.4C24.3,30.5,17.7,34.2,10.5,36.7C3.3,39.2,-4.5,40.4,-10.8,38C-17.2,35.6,-22.1,29.5,-27.7,23.7C-33.3,17.8,-39.5,12.2,-40.9,5.6C-42.3,-1,-38.8,-8.6,-35.6,-16.5C-32.3,-24.4,-29.3,-32.6,-23.4,-38C-17.5,-43.3,-8.8,-45.8,-0.7,-44.8C7.4,-43.8,14.9,-39.2,20.3,-33.7Z" width="100%" height="100%" transform="translate(50 50)" stroke-width="0" style="transition: all 0.3s ease 0s;" stroke="url(#sw-gradient)"></path>
              </svg>