
<svg xmlns="http://www.w3.org/2000/svg" version="1.1" xmlns:xlink="http://www.w3.org/1999/xlink" preserveAspectRatio="none" x="0px" y="0px" width="234px" height="100px" viewBox="0 0 234 100">
<defs/>

<g id="_____2">
<g>
<g>
<g>
<path fill="#000000" stroke="none" d="
M 70.55 28
L 70.55 18.35 46.05 42.3 18.35 14.7 13.95 14.7 13.95 86 21 86 21 27.25 45.4 51.5 70.55 28
M 8.75 46.95
Q 8.75 32.5 8.85 18.1 8.85 16.85 8.85 15.7
L 8.75 0.8 0 0.8 0 85.45 8.95 85.45
Q 8.85 66.2 8.75 46.95
M 92.1 8.1
L 92.1 0.65 70.35 0.65 46.75 24.1 45.3 24.1 21.5 0.8 8.75 0.8 8.85 15.7 8.95 8.45 20.9 8.45 46.45 33.55 72.8 8.1 92.1 8.1
M 220.05 14.7
L 215.65 14.7 187.95 42.3 163.45 18.35 163.45 28 188.6 51.5 213 27.25 213 86 220.05 86 220.05 14.7
M 225.15 15.7
L 225.25 0.8 212.5 0.8 188.7 24.1 187.25 24.1 163.65 0.65 141.9 0.65 141.9 8.1 161.2 8.1 187.55 33.55 213.1 8.45 225.05 8.45 225.15 15.7
M 225.25 0.8
L 225.15 15.7
Q 225.15 16.85 225.15 18.1 225.2 26.15 225.25 34.2 225.25 40.55 225.25 46.95 225.15 66.2 225.05 85.45
L 234 85.45 234 0.8 225.25 0.8 Z"/>

<path fill="#62AE1C" stroke="none" d="
M 163.1 32.75
L 163.15 26.3 130.85 26.3 124.3 32.75 163.1 32.75
M 163.1 21.55
L 163.15 15.1 142.05 15.1 135.9 21.55 163.1 21.55
M 110.15 32.85
L 103.6 26.4 71.3 26.4 71.35 32.85 110.15 32.85
M 98.55 21.65
L 92.4 15.2 71.3 15.2 71.35 21.65 98.55 21.65
M 92.1 41.55
L 92.1 37.4 71.3 37.4 71.3 43.6 92.1 43.6 92.1 41.55
M 138.8 43.85
L 142.35 40.5 142.35 37.4 119.25 37.4 117.8 39.3 116.45 39.3 115.1 37.4 92.1 37.4 92.1 41.55 95.2 43.85 138.8 43.85
M 163.15 43.6
L 163.15 37.4 142.35 37.4 142.35 40.5 142.35 43.6 163.15 43.6
M 92.1 93.8
L 71.3 93.8 71.3 100 92.1 100 92.1 93.8
M 92.1 55.05
L 92.1 48.85 71.3 48.85 71.3 55.05 92.1 55.05
M 92.1 88.35
L 92.1 82.15 71.3 82.15 71.3 88.35 92.1 88.35
M 92.1 77.65
L 92.1 71.45 71.3 71.45 71.3 77.65 92.1 77.65
M 92.1 66.65
L 92.1 60.45 71.3 60.45 71.3 66.65 92.1 66.65
M 163.15 100
L 163.15 93.8 142.35 93.8 142.35 100 163.15 100
M 163.15 55.05
L 163.15 48.85 142.35 48.85 142.35 55.05 163.15 55.05
M 163.15 66.65
L 163.15 60.45 142.35 60.45 142.35 66.65 163.15 66.65
M 163.15 77.65
L 163.15 71.45 142.35 71.45 142.35 77.65 163.15 77.65
M 163.15 88.35
L 163.15 82.15 142.35 82.15 142.35 88.35 163.15 88.35
M 106.6 55.05
L 128.6 55.05 134.6 48.85 99.85 48.85 106.6 55.05
M 111.75 60.7
L 116.8 65.85 122.75 60.75 111.75 60.7 Z"/>
</g>
</g>

<g>
<path stroke="#62AE1C" stroke-width="1" stroke-linejoin="round" stroke-linecap="round" fill="none" d="
M 163.15 15.1
L 142.05 15.1 135.9 21.55 163.1 21.55 163.15 15.1 Z
M 163.15 26.3
L 130.85 26.3 124.3 32.75 163.1 32.75 163.15 26.3 Z
M 142.35 37.4
L 163.15 37.4 163.15 43.6 142.35 43.6 142.35 40.5 138.8 43.85 95.2 43.85 92.1 41.55 92.1 43.6 71.3 43.6 71.3 37.4 92.1 37.4 115.1 37.4 116.45 39.3 117.8 39.3 119.25 37.4 142.35 37.4 142.35 40.5
M 142.35 82.15
L 163.15 82.15 163.15 88.35 142.35 88.35 142.35 82.15 Z
M 142.35 71.45
L 163.15 71.45 163.15 77.65 142.35 77.65 142.35 71.45 Z
M 142.35 60.45
L 163.15 60.45 163.15 66.65 142.35 66.65 142.35 60.45 Z
M 142.35 48.85
L 163.15 48.85 163.15 55.05 142.35 55.05 142.35 48.85 Z
M 142.35 93.8
L 163.15 93.8 163.15 100 142.35 100 142.35 93.8 Z
M 71.3 15.2
L 92.4 15.2 98.55 21.65 71.35 21.65 71.3 15.2 Z
M 92.1 37.4
L 92.1 41.55
M 71.3 26.4
L 103.6 26.4 110.15 32.85 71.35 32.85 71.3 26.4 Z
M 71.3 60.45
L 92.1 60.45 92.1 66.65 71.3 66.65 71.3 60.45 Z
M 71.3 71.45
L 92.1 71.45 92.1 77.65 71.3 77.65 71.3 71.45 Z
M 71.3 82.15
L 92.1 82.15 92.1 88.35 71.3 88.35 71.3 82.15 Z
M 111.75 60.7
L 116.825 65.875 122.75 60.75 111.75 60.7 Z
M 71.3 48.85
L 92.1 48.85 92.1 55.05 71.3 55.05 71.3 48.85 Z
M 99.85 48.85
L 134.6 48.85 128.6 55.05 106.6 55.05 99.85 48.85 Z
M 71.3 93.8
L 92.1 93.8 92.1 100 71.3 100 71.3 93.8 Z"/>
</g>

<g>
<path stroke="#000000" stroke-width="1" stroke-linejoin="round" stroke-linecap="round" fill="none" d="
M 225.25 0.8
L 225.15 15.7
Q 225.15 16.85 225.15 18.1 225.2 26.15 225.25 34.2 225.25 40.55 225.25 46.95 225.15 66.2 225.05 85.45
L 234 85.45 234 0.8 225.25 0.8 212.5 0.8 188.7 24.1 187.25 24.1 163.65 0.65 141.9 0.65 141.9 8.1 161.2 8.1 187.55 33.55 213.1 8.45 225.05 8.45 225.15 15.7
M 220.05 86
L 213 86 213 27.25 188.6 51.5 163.45 28 163.45 18.35 187.95 42.3 215.65 14.7 220.05 14.7 220.05 86 Z
M 0 0.8
L 8.75 0.8 21.5 0.8 45.3 24.1 46.75 24.1 70.35 0.65 92.1 0.65 92.1 8.1 72.8 8.1 46.45 33.55 20.9 8.45 8.95 8.45 8.85 15.7
Q 8.85 16.85 8.85 18.1 8.75 32.5 8.75 46.95 8.85 66.2 8.95 85.45
L 0 85.45 0 0.8 Z
M 13.95 86
L 21 86 21 27.25 45.4 51.5 70.55 28 70.55 18.35 46.05 42.3 18.35 14.7 13.95 14.7 13.95 86 Z
M 8.75 0.8
L 8.85 15.7"/>
</g>
</g>
</g>
</svg>
