<?xml version="1.0" standalone="no"?>
<svg xmlns:xlink="http://www.w3.org/1999/xlink" id="wave" style="transform:rotate(180deg); transition: 0.3s" viewBox="0 0 1440 390" version="1.1" xmlns="http://www.w3.org/2000/svg"><defs><linearGradient id="sw-gradient-0" x1="0" x2="0" y1="1" y2="0"><stop stop-color="rgba(0, 169, 255, 1)" offset="0%"/><stop stop-color="rgba(0, 169, 255, 1)" offset="100%"/></linearGradient></defs><path style="transform:translate(0, 0px); opacity:1" fill="url(#sw-gradient-0)" d="M0,0L18.5,13C36.9,26,74,52,111,52C147.7,52,185,26,222,52C258.5,78,295,156,332,162.5C369.2,169,406,104,443,117C480,130,517,221,554,247C590.8,273,628,234,665,208C701.5,182,738,169,775,188.5C812.3,208,849,260,886,266.5C923.1,273,960,234,997,227.5C1033.8,221,1071,247,1108,234C1144.6,221,1182,169,1218,143C1255.4,117,1292,117,1329,156C1366.2,195,1403,273,1440,312C1476.9,351,1514,351,1551,325C1587.7,299,1625,247,1662,195C1698.5,143,1735,91,1772,65C1809.2,39,1846,39,1883,39C1920,39,1957,39,1994,65C2030.8,91,2068,143,2105,162.5C2141.5,182,2178,169,2215,149.5C2252.3,130,2289,104,2326,91C2363.1,78,2400,78,2437,110.5C2473.8,143,2511,208,2548,195C2584.6,182,2622,91,2640,45.5L2658.5,0L2658.5,390L2640,390C2621.5,390,2585,390,2548,390C2510.8,390,2474,390,2437,390C2400,390,2363,390,2326,390C2289.2,390,2252,390,2215,390C2178.5,390,2142,390,2105,390C2067.7,390,2031,390,1994,390C1956.9,390,1920,390,1883,390C1846.2,390,1809,390,1772,390C1735.4,390,1698,390,1662,390C1624.6,390,1588,390,1551,390C1513.8,390,1477,390,1440,390C1403.1,390,1366,390,1329,390C1292.3,390,1255,390,1218,390C1181.5,390,1145,390,1108,390C1070.8,390,1034,390,997,390C960,390,923,390,886,390C849.2,390,812,390,775,390C738.5,390,702,390,665,390C627.7,390,591,390,554,390C516.9,390,480,390,443,390C406.2,390,369,390,332,390C295.4,390,258,390,222,390C184.6,390,148,390,111,390C73.8,390,37,390,18,390L0,390Z"/></svg>